<?xml version="1.0" standalone="no"?><!DOCTYPE svg PUBLIC "-//W3C//DTD SVG 1.1//EN" "http://www.w3.org/Graphics/SVG/1.1/DTD/svg11.dtd"><svg t="1545219677271" class="icon" style="" viewBox="0 0 1024 1024" version="1.1" xmlns="http://www.w3.org/2000/svg" p-id="4700" xmlns:xlink="http://www.w3.org/1999/xlink" width="708" height="708"><defs><style type="text/css"></style></defs><path d="M448.73047 241.67546h287.513989c154.295763 0 212.41247 78.375699 203.408473 193.585931-14.733813 189.902478-129.330136 294.880895-281.170264 294.880895h-76.738609c-20.872902 0-34.788169 13.710631-40.517986 51.363709l-32.946443 217.733014c-2.046363 14.119904-9.617906 22.509992-20.668265 23.533173h-180.284572c-16.984812 0-22.919265-13.096723-18.621903-41.131894l110.094325-698.423661c4.297362-28.239808 19.645084-41.541167 49.931255-41.541167z m0 0" fill="#009DE2" p-id="4701"></path><path d="M269.059806 1.432454h287.718625c81.035971 0 177.215028 2.660272 241.470824 59.549161 42.973621 37.857714 65.483613 98.430056 60.367706 163.504396-17.803357 220.188649-149.179856 343.584333-325.371703 343.584333h-142.017586c-24.147082 0-40.108713 15.961631-47.066347 59.54916L304.871157 879.731415c-2.455635 16.370903-9.617906 25.988809-22.509992 27.216627H104.941501c-19.645084 0-26.602718-15.143086-21.486811-47.680256L211.147736 49.317346C216.263643 16.780176 233.862364 1.432454 269.059806 1.432454z m0 0" fill="#113984" p-id="4702"></path><path d="M348.458687 601.835332l50.340528-318.823342c4.297362-28.035172 19.645084-41.336531 50.135891-41.33653h287.513989c47.680256 0 85.947242 7.366906 116.233413 21.077538-28.853717 196.041567-155.318945 304.908074-321.07434 304.908073h-141.81295c-18.826539 0.204636-32.946443 9.617906-41.336531 34.174261z m0 0" fill="#172C70" p-id="4703"></path></svg>